<svg xmlns="http://www.w3.org/2000/svg" viewBox="0 0 3661.21 3661.21"><defs><style>.a{fill:#18578C;}</style></defs><title>Mecanicus</title><path class="a" d="M2538.24,1527.93c8.55,9.32,55.78,16.75,59.16,12.47,22.92-28.9,30.12-61.28,44.08-94.19,25.17-38.63-23.46-26-38.09-37.68-10.09-8.15-197.11,36.74-218.45,86.62-2.88,6.84-6.48,19.86-4,21.16,15.71,8.24,135.92-11.57,157.27,11.62"/><path class="a" d="M2296.72,1738.56c4.55,8,8.33,22.2,13.69,22.83,21.84,2.52,46.73,7.34,65.78-.31,104.68-42.28,199.59-38.58,281.12,48.62,2.75,2.93,7.11,4.32,11.26,6.75,10.76-43-43.45-112.92-96.21-126.65-68.8-17.92-129.76,8.78-191.89,32.06-17.69,6.57-38.63,4.05-57.85,7.16-8.91,1.4-17.29,6.26-25.89,9.54"/><path class="a" d="M1935.23,348.1c179.91-19.41,385.22-18.82,620.19,8.55-115.48-117.42-307-221.51-542.3-260.32-181.22-29.9-388.41-21.12-607,50.2C1054.18,261.25,155.25,726,450.47,2025.52c11.12,48.72,53.26,281.12,207.2,485.8,49.8,51.55,215.89,180.45,375.63,82.12,11.89-7.34-51.61,317.24-210.36,456,0,0,407.61,516,1308.75,530.14,673.25,10.54,570.62-37.5,570.62-37.5-260.86-81.67-534.24-440.19-524-509.35,8.1-105.67,81.63-227.77,136-297.92-205.62-16.43-440.28-106.52-545.54-241,120.17,144.75,441.72,219.31,642,191.39,122.82-3,225.2-60.29,259.24-170-62.31,62-361.31,104.86-628.12-110.85,156.59,98,289.36,139.89,531.14,116,105.85-20.85,112.78-95.49,138.76-150.11,34.26-71.95,65.82-253.07,62.36-386.66-1.12-46-22.11-80.37,19.59-167.08-33.5,20.53-61.05,34.17-61.05,34.17,2,51.24-1.26,108.87-17.78,160.15-7.74,33,.54,71.68,3.74,107.6,3.24,36.83-1.49,72.53-7.43,108-10.71,63.57-75.91,73.3-147.72,62.67-715.24-79.33-767.69-586.2-893.3-676.06s-290.13-138.08-362.07-263.07c36.6,85.09,68.75,231.28,71.95,250,22.2,130.16,65.1,185,6.84,404.22s-89.05,293.28-356.22,468c343.93-307.19,317.55-696.64,321-750.76,2.79-44.35-60.42-300-83.29-390.8a113.44,113.44,0,0,1-8.15-32s-21.3-134.12-18.59-235a247.53,247.53,0,0,0,14.5,72.8c19.54,55.2,26.29,228.76,340.82,305.62,55.06,13.46,119.36,24,195,30.39,259.6,21.84,493-138.13,414.26-112.83-125.57,40.34-299.31,21.7-327.5,6.35-25.26-13.78-52-270-66.95-437.94-3.51-39.62-6.35-74.2-8.42-99.68,33,189,231.91,221.38,325.92,246.46,98.29,26.2,64.47,59.7,151.37,101.48,65.51,31.47,2.66,128.68,2.66,128.68a332.14,332.14,0,0,0,35.3-40.61l17.83-20.58,5.36-12.65c21.11-32.06,35.84-60.29,45.79-85.27l10.76-14.36c23-21.61,49.39-30,79.33-22.42,54.21,13.69,98.64,63,128.32,139.44,6.75,17.33,52,80,65.15,81.13,4.59.4,5.27-6.71-1.17-26.16-12.25-36.74-21.75-72.4-29.09-104.9-11.93-52.59-18.19-96.84-20.85-123.77-1.62-16.34.18-26.56,4.32-32.33a75.17,75.17,0,0,1,2.12,10.72c9.5,84.69,37.05,154.34,45.74,178.92s38.77-5.49,57.85,16.39,90.14,223.94,90.14,223.94v-99.91c.36-.18.68-.36,1-.54,141.15-76.09,715.1-396.74,299.81-745.72C2832.72,383.93,2361.47,327.25,1920.2,396.72c-213.32,33.59-419.7,96.48-594.93,182.43C1044.82,716.7,867.92,920.34,762.75,1083.77c164.33-288.1,478.64-660.89,1172.49-735.67m-197,1004c-12.47-2.39-51.69-15.89-101.62-38.68-52.36-24-116.47-58.12-174.06-100.81a350.76,350.76,0,0,1-33.18-27.69c74.29-17.11,213.68-57.81,288.73-134.89,34.8-35.75,55.78-79.38,49.8-132.14,0,0,25.12,321.19,32,382.83s-24.13,58.57-61.68,51.37m626.54-175.77.09-.18.09-.14a1.11,1.11,0,0,1-.18.32M2480.06,900c24.54,21.25,50.65,34.8,76.22,44.48,62.85,23.77,122.46,23.55,148,52.77,18.19,20.85,46.33,56.82,64.79,97.43-17.29-29.27-37.64-54.43-52-70.55-5-5.63-11.48-10.13-19-14-27.24-14-68.89-18.59-113.82-32.6-31.7-9.86-65-24.45-95.94-50.7-54-45.83-140.47-138-287.2-190.94a667.91,667.91,0,0,0-151.91-35.07c-55.65-6.3-117.47-6.75-186.22.95q-19.45,2.16-38.72,4.86c-146.68,20.22-284.45,61.1-389.13,119.22-4.14,2.3-8.1,4.68-12.11,7-31,18.05-59,37.59-83,58.71-23.82,21-43.72,43.49-59.34,67.36,16.43-34,41.38-65.55,73.34-94.28,104.86-94.1,284.05-158.62,478.68-185.45q17-2.36,34.08-4.32a860.94,860.94,0,0,1,88.74-5.58C2256.2,666,2402.35,832.77,2480.06,900m-1233,105h0v0"/><path class="a" d="M2742.51,1802.18s121.56-40.34,94.05-166c-1,8.06-2.21,16.39-3.65,24.13-2.79,15.67-6.35,28.77-10.27,32.42-1.67,1.53-3.42,1.44-5.18-1-2.75-3.87-5.27-7.88-7.92-11.8-16.75-24.81-31.92-50.7-48.71-77-1.8-2.79-3.78-5.58-5.58-8.37-5.09-7.74-10.13-15.49-15.62-23.23-38-53.26-54.12-147.54-54.12-147.54-3.06,80.86-49.53,139.57-49.53,139.57l14.36,25.44,68,120.21Z"/></svg>